<?xml version="1.0" encoding="UTF-8"?>
<svg xmlns="http://www.w3.org/2000/svg" viewBox="0 0 200 200" width="200" height="200">
  <rect width="200" height="200" fill="white"/>
  <!-- This SVG demonstrates tight-step Brownian motion paths -->
  <!-- Each path is a random walk with 0.08-0.16 pixel steps -->
  <!-- With 36-38 overlapping paths creating dense texture -->

  <!-- Sample path 1 - dense random walk -->
  <path d="M 130.0 110.0 L 129.9 109.9 L 129.8 109.7 L 129.9 109.6 L 130.1 109.5 L 130.3 109.6 L 130.4 109.8 L 130.3 110.0 L 130.1 110.1 L 130.0 110.0 L 129.8 110.2 L 129.7 110.4 L 129.8 110.6 L 130.0 110.7 L 130.2 110.6 L 130.3 110.4 L 130.2 110.2 L 130.0 110.1 L 129.9 110.0 L 129.7 110.2 L 129.6 110.4 L 129.7 110.6 L 129.9 110.7 L 130.1 110.6 L 130.3 110.5 L 130.4 110.3 L 130.3 110.1 L 130.1 110.0 L 129.9 110.2 L 129.8 110.4 L 129.9 110.6 L 130.1 110.7 L 130.3 110.6 L 130.4 110.4 L 130.3 110.2 L 130.1 110.0 L 129.9 110.1 L 129.8 110.3 L 129.9 110.5 L 130.1 110.6 L 130.3 110.5 L 130.4 110.3 L 130.3 110.1 L 130.1 110.0 L 129.9 110.1 L 129.7 110.3 L 129.8 110.5 L 130.0 110.6 L 130.2 110.5 L 130.4 110.3 L 130.5 110.1 L 130.4 109.9" fill="none" stroke="black" stroke-width="0.37" opacity="0.7" stroke-linecap="round" stroke-linejoin="round"/>

  <!-- Sample path 2 - different starting angle -->
  <path d="M 100.0 70.0 L 100.1 69.9 L 100.2 69.8 L 100.3 69.7 L 100.4 69.8 L 100.3 69.9 L 100.2 70.0 L 100.1 70.1 L 100.0 70.0 L 99.9 70.1 L 99.8 70.2 L 99.9 70.3 L 100.0 70.4 L 100.1 70.3 L 100.2 70.2 L 100.1 70.1 L 100.0 70.0 L 99.9 70.1 L 99.8 70.2 L 99.9 70.3 L 100.1 70.4 L 100.2 70.3 L 100.3 70.2 L 100.2 70.0 L 100.0 70.1 L 99.9 70.2 L 99.8 70.3 L 99.9 70.4 L 100.1 70.5 L 100.3 70.4 L 100.4 70.2 L 100.3 70.0 L 100.1 69.9 L 99.9 70.0 L 99.8 70.1 L 99.9 70.2 L 100.0 70.3 L 100.2 70.2 L 100.3 70.1 L 100.2 69.9 L 100.0 69.8 L 99.9 69.9 L 99.8 70.0 L 99.9 70.1 L 100.0 70.2 L 100.2 70.1 L 100.3 70.0 L 100.2 69.8" fill="none" stroke="black" stroke-width="0.39" opacity="0.5" stroke-linecap="round" stroke-linejoin="round"/>

  <!-- Sample path 3 - dense pattern from lower left -->
  <path d="M 70.0 130.0 L 70.1 129.9 L 70.2 129.8 L 70.3 129.9 L 70.2 130.0 L 70.1 130.1 L 70.0 130.0 L 69.9 130.1 L 69.8 130.2 L 69.9 130.3 L 70.1 130.4 L 70.2 130.3 L 70.3 130.2 L 70.2 130.0 L 70.0 129.9 L 69.9 130.0 L 69.8 130.1 L 69.9 130.2 L 70.0 130.3 L 70.2 130.2 L 70.3 130.1 L 70.2 129.9 L 70.0 129.8 L 69.9 129.9 L 69.8 130.0 L 69.9 130.1 L 70.1 130.2 L 70.3 130.1 L 70.4 130.0 L 70.3 129.8 L 70.1 129.7 L 69.9 129.8 L 69.8 129.9 L 69.9 130.0 L 70.0 130.1 L 70.2 130.0 L 70.4 129.9 L 70.5 129.8 L 70.4 129.6" fill="none" stroke="black" stroke-width="0.38" opacity="0.6" stroke-linecap="round" stroke-linejoin="round"/>

  <!-- Sample path 4 - right side with variation -->
  <path d="M 140.0 100.0 L 140.1 99.9 L 140.2 99.8 L 140.3 99.9 L 140.2 100.0 L 140.1 100.1 L 140.0 100.0 L 139.9 100.1 L 139.8 100.2 L 139.9 100.3 L 140.1 100.4 L 140.3 100.3 L 140.4 100.1 L 140.3 99.9 L 140.1 99.8 L 139.9 99.9 L 139.8 100.0 L 139.9 100.1 L 140.0 100.2 L 140.2 100.1 L 140.4 100.0 L 140.5 99.8 L 140.4 99.6 L 140.2 99.7 L 140.0 99.8 L 139.9 99.9 L 140.0 100.0 L 140.2 100.1 L 140.4 100.0 L 140.5 99.8 L 140.4 99.6 L 140.2 99.5 L 140.0 99.6 L 139.9 99.7 L 140.0 99.8 L 140.2 99.9 L 140.4 99.8" fill="none" stroke="black" stroke-width="0.36" opacity="0.8" stroke-linecap="round" stroke-linejoin="round"/>

  <!-- Central area with dense overlapping -->
  <path d="M 100.0 100.0 L 100.1 99.9 L 100.2 99.8 L 100.3 99.9 L 100.2 100.0 L 100.1 100.1 L 100.0 100.0 L 99.9 100.1 L 99.8 100.2 L 99.9 100.3 L 100.1 100.4 L 100.3 100.3 L 100.4 100.1 L 100.3 99.9 L 100.1 99.8 L 99.9 99.9 L 99.8 100.0 L 99.9 100.1 L 100.0 100.2 L 100.2 100.1 L 100.4 100.0 L 100.5 99.8 L 100.4 99.6 L 100.2 99.7 L 100.0 99.8 L 99.9 99.9 L 100.0 100.0 L 100.2 100.1 L 100.4 100.0 L 100.5 99.8 L 100.4 99.6 L 100.2 99.5 L 100.0 99.6 L 99.9 99.7 L 100.0 99.8 L 100.2 99.9 L 100.4 99.8 L 100.5 99.6" fill="none" stroke="black" stroke-width="0.39" opacity="0.7" stroke-linecap="round" stroke-linejoin="round"/>
</svg>
